<svg width="200" height="200" version="1.1" viewBox="0 0 200 200" xmlns="http://www.w3.org/2000/svg">
 <rect x="15.486" y="78" width="10.71" height="46.326"/>
 <path d="m39.507 77.777-13.203 22.766 13.357 22.968 10.911-0.08182-13.622-23.531 12.658-21.908z"/>
 <rect x="173.73" y="76.73" width="10.522" height="9.3929"/>
 <path d="m65.201 89.873c-5.79 0.090698-11.256 2.7129-11.256 2.7129l2.4062 5.8867c1e-6 0 2.8892-2.4848 9.1113-1.8555 6.2221 0.62935 5.2598 6.623 5.2598 6.623h-7.9414s-10.756 0.55058-10.756 9.959c0 9.4084 7.7553 10.428 14.9 10.428s11.789-1.7676 11.789-1.7676v-22.477s-0.55838-5.6725-7.8066-8.5664c-1.8121-0.72347-3.777-0.97359-5.707-0.94336zm3.0176 18.027c0.86169 0.0126 1.4375 0.08203 1.4375 0.08203v8.8516s-9.1914 1.5708-9.1914-4.1875c0-4.3187 5.1688-4.7839 7.7539-4.7461z"/>
 <path d="m93.24 95.179s-0.15143-4.7819-2.0426-4.7825l-6.1164-0.0019v32.533h8.2103v-21.046s1.34-4.3256 5.8099-4.3256c4.4699 0 5.0051 4.3839 5.0051 4.3839v20.883h8.7185v-21.27s0.70735-3.9942 5.5624-3.9942c4.855 0 4.6953 4.1792 4.6953 4.1792v21.129h8.7968v-24.042s-0.27246-8.6395-8.9028-8.6395c-8.6303 0-10.978 5.4967-10.978 5.4967s-1.0024-5.3517-8.7066-5.3517-10.052 4.8492-10.052 4.8492z"/>
 <path d="m171.05 90.741h13.365v32.756h-9.1145v-24.037l5.2043-2.2365h-9.6141z"/>
 <path d="m137.85 77.094v45.234s3.0066 1.9258 11.684 1.9258c8.677 0 18.451-4.7245 18.451-17.289 0-12.565-3.733-17.006-11.494-17.006-7.7612 0-9.8223 3.3652-9.8223 3.3652v-16.23h-8.8184zm15.414 20.1c5.083 0 5.2871 4.9136 5.2871 9.541 0 4.6274-1.3501 9.6289-5.2461 9.6289h-6.498v-14.729s1.374-4.4414 6.457-4.4414z"/>
</svg>
