<svg width="225" height="225" version="1.1" viewBox="0 0 225 225" xmlns="http://www.w3.org/2000/svg">
 <path d="m102.29 0.76324s-7.6631 24.416-25.4 59.095c-17.737 34.679-58.357 114.52-58.357 114.52s-19.291-27.284-17.847-63.379c1.444-36.094 14.875-59.966 30.626-76.352s30.276-23.846 45.144-28.945c14.867-5.099 25.835-4.9434 25.835-4.9434z"/>
 <path d="m112.43 0.047188s8.4678 8.4926 10.256 16.815c1.7885 8.3224-0.73297 23.242-0.73297 23.242s17.846 6.6377 33.411 26.504c15.565 19.866 9.826 40.454 9.826 40.454s21.796 7.8111 36.249 28.799c9.5345 13.846 8.0593 32.991 8.0593 32.991s18.498-30.327 15.1-64.424c-3.3978-34.097-23.737-70.139-52.208-87.671-28.471-17.532-59.96-16.71-59.96-16.71z"/>
 <path d="m44.646 201.74s1.0799 2.6733 12.69 8.9613c11.61 6.288 16.592 6.9892 16.592 6.9892s47.162-92.008 61.404-125.64c5.4012-12.756 3.4834-25.464-1.2892-34.197-4.9092-8.9838-12.757-13.813-12.757-13.813s-5.2153 16.711-23.035 52.101c-17.819 35.39-53.606 105.6-53.606 105.6z"/>
 <path d="m164.34 110.16s-3.8464 16.114-11.736 31.206-42.291 83.181-42.291 83.181 10.153 0.18514 23.715-2.1682c13.562-2.3534 17.698-5.0779 17.698-5.0779s19.168-38.615 26.332-54.168c7.1639-15.554 3.1609-31.506 0.3898-37.916-3.2745-7.575-14.108-15.057-14.108-15.057z"/>
</svg>
